<?xml version="1.0" encoding="UTF-8"?>
<svg id="Layer_2" data-name="Layer 2" xmlns="http://www.w3.org/2000/svg" viewBox="0 0 456.11 364.13">
  <defs>
    <style>
      .cls-1, .cls-2 {
        fill: #002e3e;
      }

      .cls-3, .cls-4, .cls-2 {
        font-family: MirageGothic, 'Mirage Gothic';
        font-size: 100px;
      }

      .cls-3, .cls-5 {
        fill: #4cbeed;
      }

      .cls-4, .cls-6 {
        fill: #fff;
      }
    </style>
  </defs>
  <g id="Layer_5" data-name="Layer 5">
    <path class="cls-1" d="M362.3,30.86c-40.42-13.81-75.15-21.97-100.09-26.91l42.74,22.81-127.99-7.32,19.35,12.11-78.72-.39,123.01,36.26-96.92,18.83,97.14.74-105.02,30.73,85.45-1.96-35,12.26,54.65,5.04-145.34,59.2,91.2-15.31-47.85,27.33,122.86-33.2-40.84,36.97,53.11-26.15-90.36,81.21,86.14-51.77-71.63,95.35,129.53-94.01-24.13,38.97,36.41-38.44-65.58,93.23,99.07-109.79-21.64,38.1c15.49-16.48,35.91-39.88,57.33-69.94,31.07-43.61,46.5-65.81,40.75-84.92-6.26-20.83-33.48-30.51-87.65-49.02Z"/>
    <path class="cls-1" d="M2.34,53.69c44.16,7.35,88.31,14.69,132.47,22.04,18.01-3.73,36.02-7.46,54.04-11.19-17.46-5.79-34.92-11.59-52.37-17.38-44.71,2.18-89.42,4.35-134.13,6.53Z"/>
    <path class="cls-1" d="M11.3,301.33c55.27-23.95,110.54-47.9,165.81-71.85,19.33-14.81,38.66-29.62,57.99-44.43-23.23,7.3-46.46,14.61-69.7,21.91-51.37,31.46-102.74,62.91-154.1,94.37Z"/>
    <path class="cls-1" d="M188.03,364.13c24.7-23.7,49.4-47.4,74.1-71.11,6.68-12.24,13.35-24.48,20.03-36.72-11.23,8.27-22.45,16.53-33.68,24.8-20.15,27.67-40.3,55.35-60.45,83.02Z"/>
    <path class="cls-5" d="M359.96,26.91c-40.42-13.81-75.15-21.97-100.09-26.91l42.74,22.81-127.99-7.32,19.35,12.11-78.72-.39,123.01,36.26-96.92,18.83,97.14.74-105.02,30.73,85.45-1.96-35,12.26,54.65,5.04-145.34,59.2,91.2-15.31-47.85,27.33,122.86-33.2-40.84,36.97,53.11-26.15-90.36,81.21,86.14-51.77-71.63,95.35,129.53-94.01-24.13,38.97,36.41-38.44-65.58,93.23,99.07-109.79-21.64,38.1c15.49-16.48,35.91-39.88,57.33-69.94,31.07-43.61,46.5-65.81,40.75-84.92-6.26-20.83-33.48-30.51-87.65-49.02Z"/>
    <path class="cls-6" d="M388.96,45.01c-26.09-8.92-48.52-14.18-64.61-17.37l27.59,14.73-82.62-4.72,12.49,7.82-50.82-.25,79.41,23.41-62.57,12.15,62.71.48-67.79,19.84,55.16-1.27-22.59,7.91,35.28,3.25-93.82,38.22,58.87-9.88-30.89,17.65,79.32-21.43-26.36,23.86,34.28-16.88-58.33,52.42,55.61-33.42-46.24,61.56,83.62-60.69-15.58,25.16,23.5-24.81-42.33,60.19,63.95-70.88-13.97,24.6c10-10.64,23.18-25.74,37.01-45.15,20.06-28.15,30.02-42.48,26.31-54.82-4.04-13.45-21.61-19.7-56.58-31.65Z"/>
    <path class="cls-5" d="M0,49.74c44.16,7.35,88.31,14.69,132.47,22.04,18.01-3.73,36.02-7.46,54.04-11.19-17.46-5.79-34.92-11.59-52.37-17.38-44.71,2.18-89.42,4.35-134.13,6.53Z"/>
    <path class="cls-6" d="M70.41,53.83c21.21,3.53,42.43,7.06,63.64,10.59,8.65-1.79,17.31-3.58,25.96-5.38-8.39-2.78-16.77-5.57-25.16-8.35-21.48,1.05-42.96,2.09-64.44,3.14Z"/>
    <path class="cls-5" d="M8.96,297.38c55.27-23.95,110.54-47.9,165.81-71.85,19.33-14.81,38.66-29.62,57.99-44.43-23.23,7.3-46.46,14.61-69.7,21.91-51.37,31.46-102.74,62.91-154.1,94.37Z"/>
    <path class="cls-6" d="M93.45,253.48c26.55-11.51,53.11-23.01,79.66-34.52,9.29-7.12,18.57-14.23,27.86-21.35-11.16,3.51-22.32,7.02-33.48,10.53-24.68,15.11-49.36,30.23-74.04,45.34Z"/>
    <path class="cls-5" d="M185.7,360.18c24.7-23.7,49.4-47.4,74.1-71.11,6.68-12.24,13.35-24.48,20.03-36.72-11.23,8.27-22.45,16.53-33.68,24.8-20.15,27.67-40.3,55.35-60.45,83.02Z"/>
    <path class="cls-6" d="M221.23,319.47c11.87-11.39,23.73-22.77,35.6-34.16,3.21-5.88,6.41-11.76,9.62-17.64-5.39,3.97-10.79,7.94-16.18,11.92-9.68,13.3-19.36,26.59-29.04,39.89Z"/>
    <text class="cls-3" transform="translate(301.62 168.27) rotate(-20)"><tspan x="0" y="0">MC</tspan></text>
    <text class="cls-4" transform="translate(295.62 168.27) rotate(-20)"><tspan x="0" y="0">MC</tspan></text>
    <text class="cls-2" transform="translate(298.62 168.27) rotate(-20)"><tspan x="0" y="0">MC</tspan></text>
  </g>
</svg>